#!OML:ASF X:\für Bonn\!DataBase\2005_08_12_Daniel\c3d\Daniel.ASF
:FULLY-SPECIFIED
:DEGREES
153
root 4.96724 15.2949 6.03284 706.472 -140.653 -2.64283
lowerback 40.2857 -0.500162 -3.79211
upperback 13.912 -6.18848 -2.80531
thorax -3.90296 -4.61458 1.35483
lowerneck -1.71156 3.18618 -2.65589
upperneck 5.68175 4.30047 -0.400691
head 2.01517 2.04436 0.416179
rclavicle -2.70347e-014 -2.62396e-014
rhumerus -42.2099 7.81449 -91.4144
rradius 108.977
rwrist 6.94193
rhand -36.6724 10.9566
rfingers 7.12502
rthumb -9.75858 -18.7973
lclavicle -2.70347e-014 -2.62396e-014
lhumerus 160.044 173.269 262.603
lradius 98.9867
lwrist -24.8522
lhand -31.7327 2.50718
lfingers 7.12502
lthumb -4.99064 32.4284
rfemur -36.9018 10.4738 19.0697
rtibia 36.5085
rfoot -18.1936 -0.949023
rtoes -16.4036
lfemur 6.41247 9.52702 -22.9899
ltibia 64.5739
lfoot -41.82 -7.00965
ltoes -3.92221
154
root 4.86682 15.2649 5.92544 706.528 -140.702 -2.49756
lowerback 40.2243 -0.659578 -3.67901
upperback 13.9293 -6.3316 -2.712
thorax -3.8596 -4.68523 1.44195
lowerneck -1.68768 3.24763 -2.39615
upperneck 5.59507 4.38619 -0.657618
head 1.99305 2.0881 0.292661
rclavicle 4.77083e-014 -7.95139e-015
rhumerus -42.2392 7.91106 -91.4581
rradius 109.48
rwrist 7.01987
rhand -36.6227 11.008
rfingers 7.12502
rthumb -9.71061 -18.7482
lclavicle 4.77083e-014 -7.95139e-015
lhumerus 159.972 173.138 262.696
lradius 99.3527
lwrist -24.6454
lhand -31.9713 2.33998
lfingers 7.12502
lthumb -5.22102 32.2557
rfemur -37.1733 10.1695 19.3103
rtibia 36.9305
rfoot -16.9767 -0.801629
rtoes -15.7008
lfemur 6.76787 9.66662 -22.6713
ltibia 64.7265
lfoot -41.7854 -7.38076
ltoes -3.65945
155
root 4.767 15.2345 5.81606 706.605 -140.724 -2.40361
lowerback 40.2105 -0.800961 -3.60198
upperback 13.9403 -6.47267 -2.63234
thorax -3.83586 -4.75561 1.53499
lowerneck -1.58347 3.32025 -2.05822
upperneck 5.44642 4.48295 -0.950201
head 1.93988 2.13946 0.14319
rclavicle 1.07344e-013 -2.38542e-015
rhumerus -42.2521 7.91121 -91.5419
rradius 110.022
rwrist 7.08125
rhand -36.4413 11.1343
rfingers 7.12502
rthumb -9.53564 -18.6299
lclavicle 1.07344e-013 -2.38542e-015
lhumerus 159.92 173.057 262.773
lradius 99.6962
lwrist -24.3732
lhand -32.2446 2.12036
lfingers 7.12502
lthumb -5.48491 32.0294
rfemur -37.4913 9.8767 19.5054
rtibia 37.4911
rfoot -15.6008 -0.639281
rtoes -14.8669
lfemur 7.15005 9.79305 -22.3837
ltibia 64.8584
lfoot -41.7266 -7.75043
ltoes -3.69112
156
root 4.66492 15.2034 5.70634 706.649 -140.731 -2.25368
lowerback 40.2279 -0.972738 -3.48868
upperback 13.9254 -6.63158 -2.52343
thorax -3.8489 -4.83064 1.65036
lowerneck -1.3858 3.38283 -1.79617
upperneck 5.26326 4.56474 -1.24044
head 1.85844 2.18241 0.00494172
rclavicle 4.53229e-014 3.26007e-014
rhumerus -42.3813 7.99978 -91.5675
rradius 110.572
rwrist 7.13024
rhand -36.3269 11.2743
rfingers 7.12502
rthumb -9.42521 -18.4949
lclavicle 4.53229e-014 3.26007e-014
lhumerus 159.766 172.906 262.879
lradius 100.067
lwrist -24.0968
lhand -32.4959 1.95684
lfingers 7.12502
lthumb -5.72756 31.8594
rfemur -37.8271 9.55523 19.7385
rtibia 38.1411
rfoot -14.1738 -0.442757
rtoes -13.6205
lfemur 7.54917 9.9038 -22.0553
ltibia 64.9794
lfoot -41.6635 -8.11951
ltoes -3.6224
157
root 4.56367 15.1745 5.5945 706.725 -140.75 -2.08581
lowerback 40.201 -1.1215 -3.33167
upperback 13.9483 -6.75022 -2.4315
thorax -3.8139 -4.88865 1.70608
lowerneck -1.28182 3.43158 -1.39532
upperneck 5.0422 4.63099 -1.57571
head 1.78719 2.22084 -0.168527
rclavicle -8.74653e-014 -4.92986e-014
rhumerus -42.3191 8.06053 -91.5891
rradius 110.962
rwrist 7.12894
rhand -36.3262 11.3673
rfingers 7.12502
rthumb -9.42458 -18.402
lclavicle -8.74653e-014 -4.92986e-014
lhumerus 159.718 172.835 262.965
lradius 100.398
lwrist -23.7477
lhand -32.6578 1.72965
lfingers 7.12502
lthumb -5.88386 31.628
rfemur -38.2545 9.175 20.0315
rtibia 38.9098
rfoot -12.7085 -0.117216
rtoes -12.2591
lfemur 7.9123 10.0115 -21.6995
ltibia 65.0662
lfoot -41.6089 -8.55606
ltoes -3.36049
158
root 4.46116 15.145 5.48135 706.762 -140.767 -1.888
lowerback 40.2706 -1.288 -3.18668
upperback 13.9187 -6.89295 -2.31474
thorax -3.86079 -4.95369 1.81221
lowerneck -1.12205 3.50668 -1.02264
upperneck 4.89393 4.73193 -1.94537
head 1.7315 2.27333 -0.347359
rclavicle 5.725e-014 2.22639e-014
rhumerus -42.3425 8.20428 -91.5709
rradius 111.348
rwrist 7.21594
rhand -36.2696 11.4298
rfingers 7.12502
rthumb -9.36992 -18.3419
lclavicle 5.725e-014 2.22639e-014
lhumerus 159.517 172.705 263.049
lradius 100.809
lwrist -23.3801
lhand -32.8796 1.65609
lfingers 7.12502
lthumb -6.09796 31.5483
rfemur -38.668 8.84676 20.3402
rtibia 39.7458
rfoot -11.2435 0.200247
rtoes -10.2846
lfemur 8.3054 10.0884 -21.3456
ltibia 65.1487
lfoot -41.49 -8.89643
ltoes -3.12331
159
root 4.35827 15.1172 5.36595 706.846 -140.78 -1.73168
lowerback 40.344 -1.44863 -3.02643
upperback 13.8799 -7.0226 -2.23959
thorax -3.92574 -5.00795 1.86412
lowerneck -0.912693 3.56688 -0.597147
upperneck 4.67623 4.81042 -2.2976
head 1.64724 2.31801 -0.531464
rclavicle -1.53462e-013 3.57812e-014
rhumerus -42.4217 8.29639 -91.5621
rradius 111.771
rwrist 7.20558
rhand -36.2843 11.4235
rfingers 7.12502
rthumb -9.38415 -18.3476
lclavicle -1.53462e-013 3.57812e-014
lhumerus 159.301 172.637 263.082
lradius 101.204
lwrist -23.0613
lhand -32.9496 1.55116
lfingers 7.12502
lthumb -6.16553 31.4414
rfemur -39.124 8.49599 20.6263
rtibia 40.6769
rfoot -9.88654 0.540367
rtoes -8.99642
lfemur 8.69946 10.1213 -21.0687
ltibia 65.1788
lfoot -41.3908 -9.16761
ltoes -3.02234
160
root 4.25551 15.0883 5.25215 706.935 -140.772 -1.5433
lowerback 40.4297 -1.60865 -2.85876
upperback 13.8555 -7.14926 -2.11044
thorax -3.97222 -5.06563 1.9669
lowerneck -0.764654 3.62087 -0.215201
upperneck 4.44182 4.88415 -2.65152
head 1.56876 2.35997 -0.708123
rclavicle 4.6118e-014 -5.56597e-015
rhumerus -42.4663 8.41771 -91.4303
rradius 112.194
rwrist 7.32581
rhand -36.3513 11.4131
rfingers 7.12502
rthumb -9.44881 -18.355
lclavicle 4.6118e-014 -5.56597e-015
lhumerus 159.159 172.51 263.247
lradius 101.576
lwrist -22.8162
lhand -32.9679 1.63992
lfingers 7.12502
lthumb -6.18321 31.5297
rfemur -39.6439 7.97958 20.975
rtibia 41.6778
rfoot -8.73796 0.884212
rtoes -9.10855
lfemur 9.07307 10.1374 -20.7857
ltibia 65.198
lfoot -41.3036 -9.35859
ltoes -3.07023
